# Blender v2.79 (sub 0) OBJ File: ''
# www.blender.org
mtllib robot_EnemyHead.mtl
o Plane
v 1.458398 1.382136 0.350229
v 1.475246 0.196586 0.350228
v 1.422192 0.779949 -0.652551
v 1.413986 1.357358 -0.652551
v 1.446350 1.393896 -0.147532
v 0.902145 0.284661 1.184858
v 0.548300 0.239122 1.184858
v 0.658928 0.214586 0.951847
v 1.287714 0.205512 1.010768
v 0.403833 0.176067 1.188532
v 0.491473 0.141497 0.956105
v 0.236098 0.170725 1.188532
v 0.297048 0.135306 0.956105
v 0.163554 0.001645 1.188532
v 0.212960 -0.026124 0.956105
v 1.384073 1.347712 0.729959
v 1.398205 0.192324 0.729958
v 0.835184 1.692215 1.010769
v 1.276904 1.293118 1.010769
v 0.806676 1.869395 0.729959
v 0.770007 2.004104 0.350229
v 0.361753 1.029596 -1.163980
v 0.561325 1.026858 -1.170983
v 0.553591 0.806618 -1.239401
v 0.485876 0.777062 -1.237679
v 0.407254 0.774559 -1.237679
v 0.373251 0.709280 -1.237679
v 0.920480 1.869024 -0.147532
v 1.078713 1.660280 -0.652551
v 0.948328 0.947803 -1.175570
v 0.862816 1.025064 -1.175570
v 0.491473 0.141497 0.369503
v 0.658928 0.214586 0.365244
v 0.212960 -0.026124 0.369503
v 0.297048 0.135306 0.369503
v 0.000000 0.001645 1.188532
v 0.000000 -0.024554 0.599070
v 0.596688 0.788875 -0.654615
v 0.000000 0.551566 -0.438404
v 0.150721 0.548165 -0.650356
v 0.234808 0.709595 -0.650356
v 0.429233 0.715787 -0.650356
v 0.000000 0.775365 -1.133884
v 0.950421 0.800534 -1.175570
v 0.000000 1.027045 -1.175570
v 0.681239 0.919475 1.192207
v 0.690566 0.983520 1.192207
v 0.690566 0.983520 1.192207
v 0.681239 0.919475 1.192207
v 0.262099 0.404157 1.179200
v 0.322688 0.478902 1.188533
v 0.322688 0.478902 1.188533
v 0.262099 0.404157 1.179200
v 0.309484 1.327830 1.192207
v 0.000000 1.336653 1.192208
v 0.000000 1.336653 1.192208
v 0.309484 1.327830 1.192207
v 0.163554 0.315164 1.188532
v 0.163554 0.315164 1.188532
v 0.681239 0.507013 1.192207
v 0.681239 0.507013 1.192207
v 0.000000 0.315164 1.188532
v 0.000000 0.315164 1.188532
v -1.458398 1.382136 0.350229
v -1.446350 1.393896 -0.147532
v -1.413986 1.357358 -0.652551
v -1.422192 0.779949 -0.652551
v -1.475246 0.196586 0.350228
v -0.902145 0.284661 1.184858
v -1.287714 0.205512 1.010768
v -0.658928 0.214586 0.951847
v -0.548300 0.239122 1.184858
v -0.491473 0.141497 0.956105
v -0.403833 0.176067 1.188532
v -0.297048 0.135306 0.956105
v -0.236098 0.170725 1.188532
v -0.212960 -0.026124 0.956105
v -0.163554 0.001645 1.188532
v -1.384073 1.347712 0.729959
v -1.398205 0.192324 0.729958
v -0.835184 1.692215 1.010769
v -0.806676 1.869395 0.729959
v -1.276904 1.293118 1.010769
v -0.770007 2.004104 0.350229
v -0.361753 1.029596 -1.163980
v -0.373251 0.709280 -1.237679
v -0.407254 0.774559 -1.237679
v -0.485876 0.777062 -1.237679
v -0.553591 0.806618 -1.239401
v -0.561325 1.026858 -1.170983
v -0.920480 1.869024 -0.147532
v -1.078713 1.660280 -0.652551
v -0.862816 1.025064 -1.175570
v -0.948328 0.947803 -1.175570
v -0.658928 0.214586 0.365244
v -0.491473 0.141497 0.369503
v -0.297048 0.135306 0.369503
v -0.212960 -0.026124 0.369503
v -0.596688 0.788875 -0.654615
v -0.150721 0.548165 -0.650356
v -0.429233 0.715787 -0.650356
v -0.234808 0.709595 -0.650356
v -0.950421 0.800534 -1.175570
v -0.681239 0.919475 1.192207
v -0.681239 0.919475 1.192207
v -0.690566 0.983520 1.192207
v -0.690566 0.983520 1.192207
v -0.262099 0.404157 1.179200
v -0.262099 0.404157 1.179200
v -0.322688 0.478902 1.188533
v -0.322688 0.478902 1.188533
v -0.309484 1.327830 1.192207
v -0.309484 1.327830 1.192207
v -0.163554 0.315164 1.188532
v -0.163554 0.315164 1.188532
v -0.681239 0.507013 1.192207
v -0.681239 0.507013 1.192207
v 0.000000 1.139393 1.288920
v 0.321283 1.133448 1.288920
v 0.578045 0.901462 1.288920
v 0.571761 0.858311 1.288920
v 0.571761 0.580406 1.288920
v 0.330180 0.561466 1.286444
v 0.289357 0.511105 1.280156
v 0.222960 0.451144 1.286444
v 0.000000 0.451144 1.286444
v 0.304994 0.621679 1.370464
v 0.271836 0.591734 1.373604
v 0.320938 0.932476 1.374841
v 0.449164 0.816622 1.374841
v 0.446026 0.795073 1.374841
v 0.446026 0.656287 1.374841
v 0.325381 0.646829 1.373604
v 0.000000 0.591734 1.373604
v 0.000000 0.935444 1.374841
v 0.245907 0.726089 1.422122
v 0.235008 0.716246 1.423154
v 0.292264 0.737465 1.423560
v 0.252608 0.734356 1.423154
v 0.293296 0.790167 1.423560
v 0.292264 0.783084 1.423560
v 0.000000 0.829224 1.423560
v 0.251148 0.828248 1.423560
v 0.000000 0.716246 1.423154
v -0.321283 1.133448 1.288920
v -0.571761 0.858311 1.288920
v -0.578045 0.901462 1.288920
v -0.330180 0.561466 1.286444
v -0.571761 0.580406 1.288920
v -0.222960 0.451144 1.286444
v -0.289357 0.511105 1.280156
v -0.271836 0.591734 1.373604
v -0.304994 0.621679 1.370464
v -0.449164 0.816622 1.374841
v -0.320938 0.932476 1.374841
v -0.446026 0.656287 1.374841
v -0.446026 0.795073 1.374841
v -0.325381 0.646829 1.373604
v -0.235008 0.716246 1.423154
v -0.245907 0.726089 1.422122
v -0.252608 0.734356 1.423154
v -0.292264 0.737465 1.423560
v -0.292264 0.783084 1.423560
v -0.293296 0.790167 1.423560
v -0.251148 0.828248 1.423560
v 0.892818 1.222964 1.184859
v 0.511737 1.567274 1.184859
v 0.301440 1.570845 1.189446
v 0.000000 1.576097 1.184859
v 0.000000 1.668043 -0.652551
v 0.000000 1.881200 -0.147531
v 0.000000 2.020043 0.350229
v 0.000000 1.882764 0.729959
v 0.237048 1.574153 1.193694
v -0.301440 1.570845 1.189446
v -0.511737 1.567274 1.184859
v -0.892818 1.222964 1.184859
v -0.237048 1.574153 1.193694
vt 0.001600 0.647500
vt 0.196700 0.640700
vt 0.113400 0.819300
vt 0.018400 0.822600
vt 0.005500 0.734800
vt 0.675600 0.454300
vt 0.736200 0.452400
vt 0.717300 0.491400
vt 0.609600 0.480800
vt 0.761000 0.449100
vt 0.745900 0.487500
vt 0.789700 0.448900
vt 0.779200 0.487300
vt 0.994800 0.741400
vt 0.964900 0.750700
vt 0.951500 0.711100
vt 0.980500 0.701700
vt 0.006500 0.579100
vt 0.196700 0.572500
vt 0.254300 0.407400
vt 0.285000 0.485500
vt 0.237800 0.504500
vt 0.197800 0.402400
vt 0.177000 0.517600
vt 0.129300 0.395900
vt 0.451400 0.643100
vt 0.452300 0.607800
vt 0.491700 0.609200
vt 0.496500 0.621200
vt 0.496900 0.635100
vt 0.507500 0.641300
vt 0.100000 0.515500
vt 0.063500 0.422500
vt 0.025500 0.509800
vt 0.002200 0.450500
vt 0.017200 0.527300
vt 0.196400 0.521000
vt 0.321500 0.519000
vt 0.370800 0.460600
vt 0.465400 0.539600
vt 0.452800 0.554500
vt 0.745900 0.588200
vt 0.717200 0.592100
vt 0.924000 0.611800
vt 0.953000 0.602500
vt 0.577400 0.593800
vt 0.779200 0.588000
vt 0.828800 0.300200
vt 0.856800 0.300200
vt 0.856800 0.400300
vt 0.820400 0.439700
vt 0.820400 0.339000
vt 0.727700 0.791700
vt 0.586400 0.790800
vt 0.856800 0.603000
vt 0.831000 0.639300
vt 0.789700 0.787600
vt 0.756400 0.787800
vt 0.965700 0.416800
vt 0.994800 0.407500
vt 0.856800 0.732000
vt 0.792900 0.747000
vt 0.746600 0.891300
vt 0.735000 0.892800
vt 0.667100 0.881600
vt 0.972500 0.304000
vt 0.984300 0.300200
vt 0.760100 0.891200
vt 0.491200 0.708000
vt 0.452500 0.706900
vt 0.136300 0.901600
vt 0.112100 0.902500
vt 0.489300 0.539600
vt 0.000000 0.000000
vt 0.000000 0.000000
vt 0.000000 0.000000
vt 0.000000 0.000000
vt 0.000000 0.000000
vt 0.000000 0.000000
vt 0.000000 0.000000
vt 0.000000 0.000000
vt 0.000000 0.000000
vt 0.000000 0.000000
vt 0.000000 0.000000
vt 0.000000 0.000000
vt 0.000000 0.000000
vt 0.000000 0.000000
vt 0.000000 0.000000
vt 0.000000 0.000000
vt 0.000000 0.000000
vt 0.000000 0.000000
vt 0.991700 0.121400
vt 0.990600 0.208700
vt 0.980600 0.296900
vt 0.885500 0.296900
vt 0.796400 0.121400
vt 0.675600 0.440200
vt 0.609600 0.413700
vt 0.717300 0.403100
vt 0.736200 0.442100
vt 0.745900 0.407000
vt 0.761000 0.445400
vt 0.779200 0.407200
vt 0.789700 0.445600
vt 0.270800 0.530300
vt 0.256500 0.569900
vt 0.227400 0.560600
vt 0.240900 0.521000
vt 0.984600 0.053200
vt 0.794200 0.053100
vt 0.254300 0.111900
vt 0.197800 0.117000
vt 0.237800 0.014800
vt 0.285000 0.033800
vt 0.129300 0.123400
vt 0.177000 0.001700
vt 0.451400 0.770900
vt 0.507500 0.773200
vt 0.496900 0.779000
vt 0.496500 0.792900
vt 0.491700 0.804800
vt 0.452300 0.806100
vt 0.063500 0.096800
vt 0.100000 0.003800
vt 0.002200 0.068800
vt 0.025500 0.009500
vt 0.972200 0.001800
vt 0.792900 0.001700
vt 0.321500 0.900100
vt 0.452800 0.859300
vt 0.465400 0.874700
vt 0.370800 0.960200
vt 0.717200 0.302400
vt 0.745900 0.306300
vt 0.229000 0.669100
vt 0.199900 0.659800
vt 0.577400 0.300700
vt 0.779200 0.306500
vt 0.884800 0.300200
vt 0.893300 0.339000
vt 0.893300 0.439700
vt 0.586400 0.103600
vt 0.727700 0.102800
vt 0.882600 0.639300
vt 0.756400 0.106600
vt 0.789700 0.106900
vt 0.270800 0.864200
vt 0.241700 0.854900
vt 0.920700 0.747000
vt 0.735000 0.001700
vt 0.746600 0.003200
vt 0.667100 0.012900
vt 0.260300 0.971400
vt 0.248500 0.967600
vt 0.760100 0.003300
vt 0.464700 0.963300
vt 0.489300 0.875400
vt 0.000000 0.000000
vt 0.000000 0.000000
vt 0.000000 0.000000
vt 0.000000 0.000000
vt 0.000000 0.000000
vt 0.000000 0.000000
vt 0.000000 0.000000
vt 0.000000 0.000000
vt 0.000000 0.000000
vt 0.000000 0.000000
vt 0.000000 0.000000
vt 0.000000 0.000000
vt 0.000000 0.000000
vt 0.000000 0.000000
vt 0.924600 0.930900
vt 0.924000 0.876200
vt 0.953900 0.876200
vt 0.954400 0.933000
vt 0.550900 0.531000
vt 0.551100 0.542400
vt 0.532600 0.523600
vt 0.532500 0.516000
vt 0.876800 0.927900
vt 0.872000 0.991300
vt 0.854600 0.972000
vt 0.857800 0.929200
vt 0.530900 0.616600
vt 0.518100 0.601600
vt 0.522300 0.575500
vt 0.530900 0.585600
vt 0.951100 0.998300
vt 0.972200 0.978400
vt 0.551100 0.460600
vt 0.532600 0.468500
vt 0.510700 0.588000
vt 0.517300 0.566400
vt 0.903200 0.870800
vt 0.903200 0.899700
vt 0.875700 0.910300
vt 0.875700 0.870800
vt 0.525100 0.550300
vt 0.529400 0.555300
vt 0.982900 0.932900
vt 0.991800 0.955600
vt 0.809800 0.972000
vt 0.815100 0.949700
vt 0.837500 0.949700
vt 0.522600 0.545700
vt 0.848000 0.918900
vt 0.848000 0.870800
vt 0.982700 0.876200
vt 0.802800 0.973100
vt 0.811600 0.950300
vt 0.839100 0.928400
vt 0.843300 0.924800
vt 0.823500 0.914300
vt 0.825100 0.912400
vt 0.821600 0.922500
vt 0.822100 0.915500
vt 0.813100 0.922700
vt 0.814200 0.922500
vt 0.998300 0.876200
vt 0.998400 0.920600
vt 0.825100 0.870800
vt 0.792900 0.927600
vt 0.806900 0.915200
vt 0.806800 0.870800
vt 0.924600 0.821400
vt 0.954400 0.819300
vt 0.529100 0.472000
vt 0.510700 0.487000
vt 0.510800 0.479300
vt 0.529300 0.460600
vt 0.876800 0.813700
vt 0.857800 0.812400
vt 0.854600 0.769700
vt 0.872000 0.750300
vt 0.294200 0.521000
vt 0.294200 0.551900
vt 0.285600 0.562000
vt 0.281400 0.536000
vt 0.951100 0.754000
vt 0.972200 0.773900
vt 0.529300 0.542400
vt 0.510800 0.534400
vt 0.280600 0.571200
vt 0.274000 0.549500
vt 0.875700 0.831400
vt 0.903200 0.841900
vt 0.292700 0.582200
vt 0.288400 0.587200
vt 0.991800 0.796700
vt 0.982900 0.819400
vt 0.837500 0.791900
vt 0.815100 0.791900
vt 0.809800 0.769700
vt 0.285900 0.591800
vt 0.848000 0.822700
vt 0.811600 0.791400
vt 0.802800 0.768600
vt 0.839100 0.813200
vt 0.825100 0.829200
vt 0.823500 0.827300
vt 0.843300 0.816900
vt 0.822100 0.826100
vt 0.821600 0.819100
vt 0.814200 0.819100
vt 0.813100 0.818900
vt 0.998400 0.831700
vt 0.806900 0.826400
vt 0.792900 0.814000
vt 0.574200 0.258400
vt 0.546900 0.271200
vt 0.546000 0.300900
vt 0.536100 0.326500
vt 0.528700 0.389100
vt 0.377200 0.387400
vt 0.321700 0.320000
vt 0.320800 0.282800
vt 0.320200 0.229500
vt 0.358500 0.229500
vt 0.359900 0.284200
vt 0.415500 0.351600
vt 0.425800 0.350000
vt 0.492400 0.350000
vt 0.497100 0.286500
vt 0.509700 0.275800
vt 0.523600 0.258400
vt 0.523600 0.229500
vt 0.574200 0.229500
vt 0.320200 0.709500
vt 0.290600 0.350200
vt 0.317000 0.417600
vt 0.062500 0.259700
vt 0.001600 0.259700
vt 0.551400 0.457300
vt 0.375900 0.455300
vt 0.128100 0.259700
vt 0.196700 0.259700
vt 0.289900 0.259700
vt 0.291400 0.301600
vt 0.291000 0.313000
vt 0.574200 0.200500
vt 0.523600 0.200500
vt 0.509700 0.183100
vt 0.497100 0.172400
vt 0.492400 0.108900
vt 0.425800 0.108900
vt 0.415500 0.107300
vt 0.359900 0.174700
vt 0.320800 0.176100
vt 0.321700 0.138900
vt 0.377200 0.071500
vt 0.528700 0.069900
vt 0.536100 0.132500
vt 0.546000 0.158000
vt 0.546900 0.187700
vt 0.290600 0.169100
vt 0.317000 0.101700
vt 0.375900 0.003600
vt 0.551400 0.001700
vt 0.291000 0.206300
vt 0.291400 0.217700
vn 0.9094 0.4057 0.0920
vn 0.6959 -0.7055 -0.1343
vn 0.7351 -0.5085 -0.4484
vn 0.8267 0.3813 -0.4138
vn 0.9071 0.4179 -0.0500
vn 0.1668 -0.5230 0.8358
vn 0.1733 -0.5942 0.7854
vn 0.1793 -0.9740 0.1382
vn 0.5637 -0.6186 0.5473
vn 0.1289 -0.6547 0.7448
vn 0.2373 -0.9643 0.1176
vn 0.3960 -0.5442 0.7396
vn 0.5148 -0.8480 0.1261
vn 0.3630 -0.6545 0.6632
vn 0.5236 -0.8459 0.1016
vn 0.8692 0.3943 0.2984
vn 0.9602 0.0117 0.2790
vn 0.3416 0.6827 0.6459
vn 0.6923 0.3000 0.6563
vn 0.3438 0.8569 0.3840
vn 0.3104 0.9488 0.0591
vn -0.0532 0.4083 -0.9113
vn -0.0005 0.4322 -0.9018
vn 0.1376 -0.4969 -0.8568
vn 0.1303 -0.6175 -0.7757
vn 0.3604 -0.6581 -0.6611
vn 0.4445 -0.5973 -0.6676
vn 0.3633 0.9097 -0.2013
vn 0.3639 0.7822 -0.5057
vn 0.4348 0.2083 -0.8761
vn 0.1738 0.4146 -0.8933
vn 0.2081 -0.9469 -0.2449
vn 0.1875 -0.9461 -0.2641
vn 0.3001 -0.9047 -0.3025
vn 0.5532 -0.7971 -0.2420
vn -0.0000 -0.6926 0.7214
vn 0.0000 -0.9960 -0.0897
vn 0.1800 -0.9466 -0.2674
vn 0.0000 -0.8968 -0.4424
vn 0.2842 -0.9045 -0.3180
vn 0.5449 -0.8191 -0.1792
vn 0.2028 -0.9315 -0.3019
vn 0.0000 -0.5529 -0.8332
vn 0.3493 -0.5973 -0.7220
vn 0.0000 0.3583 -0.9336
vn 0.0057 0.0024 1.0000
vn 0.0047 0.0020 1.0000
vn 0.2344 0.0983 0.9672
vn 0.3717 -0.0351 0.9277
vn 0.0056 0.0024 1.0000
vn 0.0049 0.0021 1.0000
vn 0.2664 -0.4171 0.8690
vn 0.3483 -0.3439 0.8720
vn 0.0051 0.0022 1.0000
vn -0.0000 0.0025 1.0000
vn 0.0000 0.2256 0.9742
vn 0.0654 0.2028 0.9770
vn 0.0050 0.0022 1.0000
vn 0.0874 -0.2986 0.9504
vn 0.0040 0.0017 1.0000
vn 0.1673 -0.1468 0.9749
vn 0.0000 -0.3070 0.9517
vn -0.9094 0.4057 0.0920
vn -0.9071 0.4179 -0.0500
vn -0.8267 0.3813 -0.4138
vn -0.7351 -0.5085 -0.4484
vn -0.6959 -0.7055 -0.1343
vn -0.1668 -0.5230 0.8358
vn -0.5637 -0.6186 0.5473
vn -0.1793 -0.9740 0.1382
vn -0.1733 -0.5942 0.7854
vn -0.2373 -0.9643 0.1176
vn -0.1289 -0.6547 0.7448
vn -0.5148 -0.8480 0.1261
vn -0.3960 -0.5442 0.7396
vn -0.5236 -0.8459 0.1016
vn -0.3630 -0.6545 0.6632
vn -0.8692 0.3943 0.2984
vn -0.9602 0.0117 0.2790
vn -0.3416 0.6827 0.6459
vn -0.3438 0.8569 0.3840
vn -0.6923 0.3000 0.6563
vn -0.3104 0.9488 0.0591
vn 0.0532 0.4083 -0.9113
vn -0.4445 -0.5973 -0.6676
vn -0.3604 -0.6581 -0.6611
vn -0.1303 -0.6175 -0.7757
vn -0.1376 -0.4969 -0.8568
vn 0.0005 0.4322 -0.9018
vn -0.3633 0.9097 -0.2013
vn -0.3639 0.7822 -0.5057
vn -0.1738 0.4146 -0.8933
vn -0.4348 0.2083 -0.8761
vn -0.1875 -0.9461 -0.2641
vn -0.2081 -0.9469 -0.2449
vn -0.5532 -0.7971 -0.2420
vn -0.3001 -0.9047 -0.3025
vn -0.1800 -0.9466 -0.2674
vn -0.2842 -0.9045 -0.3180
vn -0.2028 -0.9315 -0.3019
vn -0.5449 -0.8191 -0.1792
vn -0.3493 -0.5973 -0.7220
vn -0.0057 0.0024 1.0000
vn -0.3717 -0.0351 0.9277
vn -0.2344 0.0983 0.9672
vn -0.0047 0.0020 1.0000
vn -0.0056 0.0024 1.0000
vn -0.3483 -0.3439 0.8720
vn -0.2664 -0.4171 0.8690
vn -0.0049 0.0021 1.0000
vn -0.0051 0.0022 1.0000
vn -0.0654 0.2028 0.9770
vn -0.0050 0.0022 1.0000
vn -0.0874 -0.2986 0.9504
vn -0.0040 0.0017 1.0000
vn -0.1673 -0.1468 0.9749
vn 0.0000 0.4173 0.9088
vn 0.1963 0.4219 0.8851
vn 0.5378 0.1591 0.8279
vn 0.6268 -0.0457 0.7778
vn 0.3924 -0.4214 0.8176
vn 0.3455 -0.6890 0.6371
vn 0.6169 -0.5868 0.5245
vn 0.3212 -0.6165 0.7189
vn 0.0000 -0.5560 0.8312
vn 0.4676 -0.4473 0.7624
vn 0.2980 -0.4840 0.8228
vn 0.1794 0.3653 0.9134
vn 0.4195 0.1123 0.9008
vn 0.4385 -0.0274 0.8983
vn 0.2911 -0.3547 0.8885
vn 0.1843 -0.5209 0.8335
vn 0.0000 -0.4501 0.8930
vn 0.0000 0.4050 0.9143
vn 0.1527 -0.1624 0.9748
vn 0.1053 -0.1998 0.9742
vn 0.1149 -0.2012 0.9728
vn 0.0791 -0.2006 0.9765
vn 0.1815 0.0828 0.9799
vn 0.1536 -0.0121 0.9881
vn 0.0000 0.2133 0.9770
vn 0.0696 0.2202 0.9730
vn -0.0000 -0.1901 0.9818
vn -0.1963 0.4219 0.8851
vn -0.6268 -0.0457 0.7778
vn -0.5378 0.1591 0.8279
vn -0.3455 -0.6890 0.6371
vn -0.3924 -0.4214 0.8176
vn -0.3212 -0.6165 0.7189
vn -0.6169 -0.5868 0.5245
vn -0.2980 -0.4840 0.8228
vn -0.4676 -0.4473 0.7624
vn -0.4195 0.1123 0.9008
vn -0.1794 0.3653 0.9134
vn -0.2911 -0.3547 0.8885
vn -0.4385 -0.0274 0.8983
vn -0.1843 -0.5209 0.8335
vn -0.1053 -0.1998 0.9742
vn -0.1527 -0.1624 0.9748
vn -0.0791 -0.2006 0.9765
vn -0.1149 -0.2012 0.9728
vn -0.1536 -0.0121 0.9881
vn -0.1815 0.0828 0.9799
vn -0.0696 0.2202 0.9730
vn 0.2413 0.1340 0.9612
vn 0.0774 0.4665 0.8811
vn 0.0106 0.4733 0.8809
vn -0.0000 0.4826 0.8758
vn 0.0000 0.8018 -0.5976
vn -0.0000 0.9460 -0.3241
vn 0.0000 0.9993 0.0383
vn 0.0000 0.8942 0.4478
vn 0.0071 0.8328 0.5535
vn -0.0106 0.4733 0.8809
vn -0.0774 0.4665 0.8811
vn -0.2413 0.1340 0.9612
vn -0.0071 0.8328 0.5535
usemtl Material.002
s 1
f 1/1/1 2/2/2 3/3/3 4/4/4 5/5/5
f 6/6/6 7/7/7 8/8/8 9/9/9
f 7/7/7 10/10/10 11/11/11 8/8/8
f 10/10/10 12/12/12 13/13/13 11/11/11
f 12/14/12 14/15/14 15/16/15 13/17/13
f 16/18/16 17/19/17 2/2/2 1/1/1
f 18/20/18 19/21/19 16/22/16 20/23/20
f 20/23/20 16/22/16 1/24/1 21/25/21
f 22/26/22 23/27/23 24/28/24 25/29/25 26/30/26 27/31/27
f 21/25/21 1/24/1 5/32/5 28/33/28
f 28/33/28 5/32/5 4/34/4 29/35/29
f 19/36/19 9/37/9 17/19/17 16/18/16
f 29/38/29 4/39/4 30/40/30 31/41/31
f 8/8/8 11/11/11 32/42/32 33/43/33
f 13/17/13 15/16/15 34/44/34 35/45/35
f 9/9/9 8/8/8 33/43/33 2/46/2
f 11/11/11 13/13/13 35/47/35 32/42/32
f 14/48/14 36/49/36 37/50/37 34/51/34 15/52/15
f 2/46/2 33/43/33 38/53/38 3/54/3
f 34/51/34 37/50/37 39/55/39 40/56/40
f 32/42/32 35/47/35 41/57/41 42/58/42
f 33/43/33 32/42/32 42/58/42 38/53/38
f 35/45/35 34/44/34 40/59/40 41/60/41
f 40/56/40 39/55/39 43/61/43 27/62/27
f 38/53/38 42/58/42 25/63/25 24/64/24
f 3/54/3 38/53/38 24/64/24 44/65/44
f 41/60/41 40/59/40 27/66/27 26/67/26
f 42/58/42 41/57/41 26/68/26 25/63/25
f 22/26/22 27/31/27 43/69/43 45/70/45
f 3/3/3 44/71/44 30/72/30 4/4/4
f 44/73/44 24/28/24 23/27/23 31/41/31 30/40/30
f 46/74/46 47/75/47 48/76/48 49/77/49
f 50/78/50 51/79/51 52/80/52 53/81/53
f 54/82/54 55/83/55 56/84/56 57/85/57
f 58/86/58 50/78/50 53/81/53 59/87/59
f 60/88/60 46/74/46 49/77/49 61/89/61
f 51/79/51 60/88/60 61/89/61 52/80/52
f 47/75/47 54/82/54 57/85/57 48/76/48
f 62/90/55 58/86/58 59/87/59 63/91/62
f 64/92/63 65/93/64 66/94/65 67/95/66 68/96/67
f 69/97/68 70/98/69 71/99/70 72/100/71
f 72/100/71 71/99/70 73/101/72 74/102/73
f 74/102/73 73/101/72 75/103/74 76/104/75
f 76/105/75 75/106/74 77/107/76 78/108/77
f 79/109/78 64/92/63 68/96/67 80/110/79
f 81/111/80 82/112/81 79/113/78 83/114/82
f 82/112/81 84/115/83 64/116/63 79/113/78
f 85/117/84 86/118/85 87/119/86 88/120/87 89/121/88 90/122/89
f 84/115/83 91/123/90 65/124/64 64/116/63
f 91/123/90 92/125/91 66/126/65 65/124/64
f 83/127/82 79/109/78 80/110/79 70/128/69
f 92/129/91 93/130/92 94/131/93 66/132/65
f 71/99/70 95/133/94 96/134/95 73/101/72
f 75/106/74 97/135/96 98/136/97 77/107/76
f 70/98/69 68/137/67 95/133/94 71/99/70
f 73/101/72 96/134/95 97/138/96 75/103/74
f 78/139/77 77/140/76 98/141/97 37/50/37 36/49/36
f 68/137/67 67/142/66 99/143/98 95/133/94
f 98/141/97 100/144/99 39/55/39 37/50/37
f 96/134/95 101/145/100 102/146/101 97/138/96
f 95/133/94 99/143/98 101/145/100 96/134/95
f 97/135/96 102/147/101 100/148/99 98/136/97
f 100/144/99 86/149/85 43/61/43 39/55/39
f 99/143/98 89/150/88 88/151/87 101/145/100
f 67/142/66 103/152/102 89/150/88 99/143/98
f 102/147/101 87/153/86 86/154/85 100/148/99
f 101/145/100 88/151/87 87/155/86 102/146/101
f 85/117/84 45/70/45 43/69/43 86/118/85
f 67/156/66 66/132/65 94/131/93 103/157/102
f 103/157/102 94/131/93 93/130/92 90/122/89 89/121/88
f 104/158/103 105/159/104 106/160/105 107/161/106
f 108/162/107 109/163/108 110/164/109 111/165/110
f 112/166/111 113/167/112 56/84/56 55/83/55
f 114/168/113 115/169/114 109/163/108 108/162/107
f 116/170/115 117/171/116 105/159/104 104/158/103
f 111/165/110 110/164/109 117/171/116 116/170/115
f 107/161/106 106/160/105 113/167/112 112/166/111
f 62/90/55 63/91/62 115/169/114 114/168/113
usemtl lens
f 57/172/57 56/173/56 118/174/117 119/175/118
f 49/176/49 48/177/48 120/178/119 121/179/120
f 52/180/52 61/181/61 122/182/121 123/183/122
f 59/184/59 53/185/53 124/186/123 125/187/124
f 48/188/48 57/172/57 119/175/118 120/189/119
f 61/190/61 49/176/49 121/179/120 122/191/121
f 53/185/53 52/192/52 123/193/122 124/186/123
f 63/194/62 59/195/59 125/196/124 126/197/125
f 125/187/124 124/186/123 127/198/126 128/199/127
f 120/189/119 119/175/118 129/200/128 130/201/129
f 122/182/121 121/202/120 131/203/130 132/204/131
f 124/186/123 123/193/122 133/205/132 127/198/126
f 126/197/125 125/196/124 128/206/127 134/207/133
f 119/175/118 118/174/117 135/208/134 129/200/128
f 121/202/120 120/209/119 130/210/129 131/203/130
f 123/183/122 122/182/121 132/204/131 133/211/132
f 128/206/127 127/212/126 136/213/135 137/214/136
f 133/211/132 132/204/131 138/215/137 139/216/138
f 131/203/130 130/210/129 140/217/139 141/218/140
f 129/200/128 135/208/134 142/219/141 143/220/142
f 134/207/133 128/206/127 137/214/136 144/221/143
f 127/212/126 133/211/132 139/216/138 136/213/135
f 132/204/131 131/203/130 141/218/140 138/215/137
f 130/210/129 129/222/128 143/223/142 140/217/139
f 142/224/141 144/221/143 137/214/136 136/213/135 139/216/138 138/215/137 141/218/140 140/217/139 143/223/142
f 113/225/112 145/226/144 118/174/117 56/173/56
f 105/227/104 146/228/145 147/229/146 106/230/105
f 110/231/109 148/232/147 149/233/148 117/234/116
f 115/235/114 150/236/149 151/237/150 109/238/108
f 106/239/105 147/240/146 145/226/144 113/225/112
f 117/241/116 149/242/148 146/228/145 105/227/104
f 109/238/108 151/237/150 148/243/147 110/244/109
f 63/194/62 126/197/125 150/245/149 115/246/114
f 150/236/149 152/247/151 153/248/152 151/237/150
f 147/240/146 154/249/153 155/250/154 145/226/144
f 149/233/148 156/251/155 157/252/156 146/253/145
f 151/237/150 153/248/152 158/254/157 148/243/147
f 126/197/125 134/207/133 152/255/151 150/245/149
f 145/226/144 155/250/154 135/208/134 118/174/117
f 146/253/145 157/252/156 154/256/153 147/257/146
f 148/232/147 158/258/157 156/251/155 149/233/148
f 152/255/151 159/259/158 160/260/159 153/261/152
f 158/258/157 161/262/160 162/263/161 156/251/155
f 157/252/156 163/264/162 164/265/163 154/256/153
f 155/250/154 165/266/164 142/219/141 135/208/134
f 134/207/133 144/221/143 159/259/158 152/255/151
f 153/261/152 160/260/159 161/262/160 158/258/157
f 156/251/155 162/263/161 163/264/162 157/252/156
f 154/256/153 164/265/163 165/267/164 155/268/154
f 142/224/141 165/267/164 164/265/163 163/264/162 162/263/161 161/262/160 160/260/159 159/259/158 144/221/143
usemtl primaryColor
f 14/269/14 12/270/12 10/271/10 7/272/7 6/273/6 166/274/165 167/275/166 168/276/167 169/277/168 55/278/55 54/279/54 47/280/47 46/281/46 60/282/60 51/283/51 50/284/50 58/285/58 62/286/55 36/287/36
f 170/288/169 29/38/29 31/41/31 23/27/23 22/26/22 45/70/45
f 167/289/166 166/290/165 19/21/19 18/20/18
f 171/291/170 28/33/28 29/35/29 170/292/169
f 6/273/6 9/293/9 19/294/19 166/274/165
f 172/295/171 21/25/21 28/33/28 171/291/170
f 18/20/18 20/23/20 173/296/172 169/297/168 174/298/173 168/299/167 167/289/166
f 173/296/172 20/23/20 21/25/21 172/295/171
f 78/300/77 36/287/36 62/286/55 114/301/113 108/302/107 111/303/110 116/304/115 104/305/103 107/306/106 112/307/111 55/278/55 169/277/168 175/308/174 176/309/175 177/310/176 69/311/68 72/312/71 74/313/73 76/314/75
f 170/288/169 45/70/45 85/117/84 90/122/89 93/130/92 92/129/91
f 176/315/175 81/111/80 83/114/82 177/316/176
f 171/291/170 170/292/169 92/125/91 91/123/90
f 69/311/68 177/310/176 83/317/82 70/318/69
f 172/295/171 171/291/170 91/123/90 84/115/83
f 81/111/80 176/315/175 175/319/174 178/320/177 169/297/168 173/296/172 82/112/81
f 173/296/172 172/295/171 84/115/83 82/112/81
